<svg id="Layer_1" data-name="Layer 1" xmlns="http://www.w3.org/2000/svg" width="64" height="64" viewBox="0 0 64 64"><defs><style>.cls-1{fill:#1d1d1b;}.cls-2{fill:#85bfe9;}.cls-3{fill:#e6e4da;}.cls-4{fill:#ddc07c;}.cls-5{fill:#cbe7f5;}.cls-6{fill:#fab900;}</style></defs><title>solar-system</title><g id="solar-system"><path class="cls-1" d="M51.68,14C45.59,6.57,38.89,4.57,35,4.57s-11.08.88-15.12,3.17-9.33,7.62-11.38,11.5A23.88,23.88,0,0,0,6.22,35.78a24.6,24.6,0,0,0,5.42,10.67s-3.5,5.71-.75,8.38a7.74,7.74,0,0,0,9,1.5s3.33,2.83,11,3.08,11.33-1.92,16-6,9.13-8.54,10.83-17.37S57.76,21.41,51.68,14ZM50.47,47.53c-5.29,6.54-10.54,8.75-14,9.79s-10.17.17-12.08-.54a7.52,7.52,0,0,1-2.92-1.87s3.65-5.56-1.21-9c-4-2.83-7.08-.33-7.08-.33A20.46,20.46,0,0,1,8,34c-.54-6.79.79-12.17,3.38-15.62s7.58-11.75,22.58-12c3.54-.06,8.38,1.25,13.21,5.37S55.55,21.49,56,27.49,55.76,41,50.47,47.53Zm5-39.21a2.37,2.37,0,0,0-3-3A2.46,2.46,0,0,0,51,9.12C51.68,10,55,10.78,55.47,8.32Z"/><path class="cls-2" d="M52.64,6.41a1.61,1.61,0,0,1,2,1,1.38,1.38,0,0,1-2,1.46C51.14,8.24,51.76,6.82,52.64,6.41Z"/><path class="cls-1" d="M37.59,10.45c1-.72,2.13.54,2.13,1.25s-1.25,1.29-1.92.92A1.28,1.28,0,0,1,37.59,10.45Z"/><path class="cls-1" d="M46.64,14.66c1-.34,2.58.13,2.54,2.17s-2.79,1.75-3.42.75A1.94,1.94,0,0,1,46.64,14.66Z"/><path class="cls-3" d="M47,15.54a1,1,0,0,1,1.29,1.1c0,1-1.41.89-1.73.38A1,1,0,0,1,47,15.54Z"/><path class="cls-1" d="M26.43,49.7c1-.34,2.58.13,2.54,2.17s-2.79,1.75-3.42.75A1.94,1.94,0,0,1,26.43,49.7Z"/><path class="cls-3" d="M26.76,50.58A1,1,0,0,1,28,51.68c0,1-1.41.89-1.73.38A1,1,0,0,1,26.76,50.58Z"/><path class="cls-4" d="M14.09,47c1.88-1.17,5-.37,5.88.92s.75,4,.5,4.79a2.64,2.64,0,0,1-.92,1.25s-1-4-1.33-4.08-.83,0-.83.21,1.38,4.46,1.17,4.63a4.6,4.6,0,0,1-.62.38s-1.33-4.54-1.58-4.58-.83.38-.71.5,1.54,4.42,1.29,4.46-.67.13-.75,0-1.46-4.25-1.62-4.25-1,.33-.87.5,1.21,3.42,1,3.46A3.85,3.85,0,0,1,12,51.87,4.9,4.9,0,0,1,14.09,47Z"/><path class="cls-1" d="M19.26,49.53c.29-.17.88-.25.83-.08S20,51.32,20,51.32a.43.43,0,0,1-.5-.25A11.3,11.3,0,0,1,19.26,49.53Z"/><path class="cls-1" d="M48.51,29.12c-.5-6.62-5-8.54-5-8.54s1.63-3.62-1.37-5.58S36,16.16,36,16.16c-4.75-1.25-9.33-.83-13.54,2.38a19.14,19.14,0,0,0-7,14.71C15.55,38.66,19,43.41,25,46.78S38.8,48.2,42.76,45.37,49,35.74,48.51,29.12ZM38.76,45.37c-4.67,1.88-12.54,1.71-16.83-2.83s-5.46-10.08-3.33-15.46,8.33-11.17,16.67-9.46a3.56,3.56,0,0,0,2.33,4.17c3,1,4.63.21,4.63.21s4.5,2.25,4.58,8.92S43.43,43.49,38.76,45.37Z"/><path class="cls-5" d="M38.68,16a2.75,2.75,0,0,1,3.13,1c.83,1.29-.42,3.13-.83,3.38s-1.42-.17-1.42-.17S39.26,18.12,39,18s-1-.12-.83.08.33,2,.17,1.88a3.29,3.29,0,0,1-1.17-2.17A2,2,0,0,1,38.68,16Z"/><path class="cls-1" d="M40,17.45c-.06-.26.67-.42.75-.08s.33,1.67.08,1.88-.75.21-.79,0S40,17.62,40,17.45Z"/><path class="cls-1" d="M31.51,22.57c-.09-.14-.17-3.17.17-3.17s.88-.25,1,.13a10.65,10.65,0,0,1-.08,3.08C32.34,22.74,31.68,22.82,31.51,22.57Z"/><path class="cls-1" d="M26.09,20.53c0-.13.71-.42.92-.25a8.82,8.82,0,0,1,1.17,2.67c-.12.21-.46.58-.71.42A10.49,10.49,0,0,1,26.09,20.53Z"/><path class="cls-1" d="M22.68,23.66s2.33.71,2.33,1a1.79,1.79,0,0,1-.33.79,18.76,18.76,0,0,1-2.67-1C22,24.37,22.39,23.78,22.68,23.66Z"/><path class="cls-1" d="M19.89,28.66c.21,0,2.83.5,2.92.79s.13.92-.12.92a24.43,24.43,0,0,1-3-.54C19.43,29.7,19.89,28.66,19.89,28.66Z"/><path class="cls-1" d="M20.05,33.2a5.41,5.41,0,0,1,2.75-.08c.08.21.25.75.08.88a12.34,12.34,0,0,1-2.75.29C20,34.2,19.93,33.37,20.05,33.2Z"/><path class="cls-1" d="M22.22,39.87c-.17-.12,1.92-2.29,2.13-2.17s.54.38.46.67-1.75,2.33-2.08,2.29S22.39,40,22.22,39.87Z"/><path class="cls-1" d="M28.18,42.74c-.45,0,1.21-3.54,1.42-3.5s.79.08.71.42A21.16,21.16,0,0,1,29.05,43C28.8,43.2,28.39,42.74,28.18,42.74Z"/><path class="cls-1" d="M33.14,39.57c.16-.16,1.08-.5,1.17-.17a20.81,20.81,0,0,1,.33,3.75c-.17.08-1,.13-1-.08A21.24,21.24,0,0,1,33.14,39.57Z"/><path class="cls-1" d="M38.55,37.07c-.17-.17.46-.87.67-.83s2.71,1.58,2.71,2-.25.88-.54.92A18.25,18.25,0,0,1,38.55,37.07Z"/><path class="cls-1" d="M40.51,30.12c0-.16,3.75,0,3.88.38a.79.79,0,0,1,0,.71A17.68,17.68,0,0,1,40.51,31C40.3,30.82,40.47,30.37,40.51,30.12Z"/><path class="cls-1" d="M38.39,25c.13-.08,2.17-2,2.42-1.83a1.86,1.86,0,0,1,.71.83,12.37,12.37,0,0,1-2.46,1.71A5,5,0,0,1,38.39,25Z"/><path class="cls-1" d="M28.93,24.95c2.7-1.15,10-.33,10,6.46s-8.75,9-11.92,5.17S23.34,27.32,28.93,24.95Z"/><path class="cls-6" d="M29.64,26.59c2-.86,7.48-.25,7.45,4.83s-6.55,6.7-8.92,3.87S25.46,28.37,29.64,26.59Z"/></g></svg>